<svg xmlns="http://www.w3.org/2000/svg" xmlns:xlink="http://www.w3.org/1999/xlink" version="1.1" x="0px" y="0px" width="100px" height="100px" viewBox="0 0 100 100" enable-background="new 0 0 100 100" xml:space="preserve">
<g id="Captions">
</g>
<g id="Your_Icon">
	<path fill-rule="evenodd" clip-rule="evenodd" d="M41.97,14.424C40.582,14.17,39.26,14,38.109,14   C38.964,14,40.382,14.17,41.97,14.424z M61.273,14c-1.395,0-2.898,0.188-4.413,0.473C58.545,14.188,60.146,14,61.273,14z    M15.151,27.503c0.679,0.019,1.388,0.031,2.122,0.031c5.206,0,15.151-4.849,20.606-4.849c2.055,0,4.333,0.345,6.363,0.775v-2.624   c-2.03-0.43-4.309-0.776-6.363-0.776c-5.455,0-15.4,4.849-20.606,4.849c-0.733,0-1.442-0.012-2.122-0.036V27.503z M7.879,32.831   c2.412,0.424,5.545,0.764,9.394,0.764c5.206,0,15.151-4.849,20.606-4.849c2.055,0,4.333,0.345,6.363,0.776v-2.625   c-2.03-0.43-4.309-0.775-6.363-0.775c-5.455,0-15.4,4.848-20.606,4.848c-3.849,0-6.982-0.339-9.394-0.763V32.831z M7.879,38.891   c2.412,0.424,5.545,0.764,9.394,0.764c5.206,0,15.151-4.849,20.606-4.849c2.055,0,4.333,0.345,6.363,0.776v-2.625   c-2.03-0.43-4.309-0.775-6.363-0.775c-5.455,0-15.4,4.848-20.606,4.848c-3.849,0-6.982-0.339-9.394-0.763V38.891z M7.879,44.952   c2.412,0.424,5.545,0.764,9.394,0.764c5.206,0,15.151-4.849,20.606-4.849c2.055,0,4.333,0.346,6.363,0.776v-2.625   c-2.03-0.43-4.309-0.775-6.363-0.775c-5.455,0-15.4,4.848-20.606,4.848c-3.849,0-6.982-0.339-9.394-0.763V44.952z M7.879,51.012   c2.412,0.424,5.545,0.764,9.394,0.764c5.206,0,15.151-4.848,20.606-4.848c2.055,0,4.333,0.346,6.363,0.776v-2.625   c-2.03-0.43-4.309-0.775-6.363-0.775c-5.455,0-15.4,4.849-20.606,4.849c-3.849,0-6.982-0.34-9.394-0.764V51.012z M31.515,51.551   c-5.006,1.438-10.715,3.662-14.242,3.662c-3.849,0-6.982-0.34-9.394-0.764v2.623c2.412,0.424,5.545,0.764,9.394,0.764   c3.527,0,9.236-2.225,14.242-3.66V51.551z M7.879,63.133c2.412,0.424,5.545,0.764,9.394,0.764c5.206,0,15.151-4.848,20.606-4.848   c2.055,0,4.333,0.346,6.363,0.775v-2.625c-2.03-0.43-4.309-0.775-6.363-0.775c-5.455,0-15.4,4.85-20.606,4.85   c-3.849,0-6.982-0.34-9.394-0.764V63.133z M7.879,69.193c2.412,0.424,5.545,0.764,9.394,0.764c5.206,0,15.151-4.848,20.606-4.848   c2.055,0,4.333,0.346,6.363,0.775V63.26c-2.03-0.43-4.309-0.775-6.363-0.775c-5.455,0-15.4,4.85-20.606,4.85   c-3.849,0-6.982-0.34-9.394-0.764V69.193z M90.909,26.77v-2.624c-2.412,0.424-5.546,0.764-9.394,0.764   c-5.207,0-15.152-4.849-20.606-4.849c-2.055,0-4.333,0.346-6.364,0.776v2.624c2.031-0.43,4.31-0.775,6.364-0.775   c5.454,0,15.399,4.849,20.606,4.849C85.363,27.534,88.497,27.194,90.909,26.77z M90.909,32.831v-2.624   c-2.412,0.424-5.546,0.763-9.394,0.763c-5.207,0-15.152-4.848-20.606-4.848c-2.055,0-4.333,0.345-6.364,0.775v2.625   c2.031-0.431,4.31-0.776,6.364-0.776c5.454,0,15.399,4.849,20.606,4.849C85.363,33.594,88.497,33.255,90.909,32.831z    M90.909,38.891v-2.624c-2.412,0.424-5.546,0.763-9.394,0.763c-5.207,0-15.152-4.848-20.606-4.848   c-2.055,0-4.333,0.345-6.364,0.775v2.625c2.031-0.431,4.31-0.776,6.364-0.776c5.454,0,15.399,4.849,20.606,4.849   C85.363,39.655,88.497,39.315,90.909,38.891z M60.909,38.243v2.624c5.454,0,15.399,4.849,20.606,4.849   c3.848,0,6.981-0.339,9.394-0.764v-2.624c-2.412,0.424-5.546,0.763-9.394,0.763C76.309,43.091,66.363,38.243,60.909,38.243z    M90.909,51.012v-2.624c-2.412,0.424-5.546,0.764-9.394,0.764c-5.207,0-15.152-4.849-20.606-4.849   c-2.055,0-4.333,0.345-6.364,0.775v2.625c2.031-0.43,4.31-0.776,6.364-0.776c5.454,0,15.399,4.848,20.606,4.848   C85.363,51.775,88.497,51.436,90.909,51.012z M90.909,57.072v-2.623c-2.412,0.424-5.546,0.764-9.394,0.764   c-5.207,0-15.152-4.849-20.606-4.849c-2.055,0-4.333,0.346-6.364,0.775v2.625c2.031-0.43,4.31-0.775,6.364-0.775   c5.454,0,15.399,4.848,20.606,4.848C85.363,57.836,88.497,57.496,90.909,57.072z M90.909,63.133V60.51   c-2.412,0.424-5.546,0.764-9.394,0.764c-5.207,0-15.152-4.85-20.606-4.85c-2.055,0-4.333,0.346-6.364,0.775v2.625   c2.031-0.43,4.31-0.775,6.364-0.775c5.454,0,15.399,4.848,20.606,4.848C85.363,63.896,88.497,63.557,90.909,63.133z M73.939,68.363   V65.74c-4.612-1.42-9.673-3.256-13.03-3.256c-2.055,0-4.333,0.346-6.364,0.775v2.625c2.031-0.43,4.31-0.775,6.364-0.775   C64.267,65.109,69.327,66.951,73.939,68.363z M38.109,14c-6.061,0-14.545,4.849-21.976,4.849c-4.545,0-9.842-0.758-14.242-2.273   v9.606C0.812,26.418,0,27.388,0,28.545v55.757c0,1.34,1.085,2.424,2.424,2.424h38.788c0.667,0,1.212-0.545,1.212-1.211l2.424,1.211   h10.303l2.425-1.211c0,0.666,0.545,1.211,1.212,1.211h38.788c1.339,0,2.424-1.084,2.424-2.424V28.545   c0-1.339-1.085-2.424-2.424-2.424h-0.073v-9.546c-4.546,1.515-9.854,2.273-14.242,2.273c-0.46,0-2.582,0-3.637-0.303   c-2.425-0.455-5.006-1.212-7.127-1.97C68.715,15.515,64.775,14,61.285,14h-0.012c-1.128,0-2.729,0.188-4.413,0.473   c-2.702,0.461-5.624,1.17-7.157,1.728c-1.57-0.582-4.909-1.321-7.733-1.776C40.382,14.17,38.964,14,38.109,14z M48.412,17.788   v53.636c-2.121-0.758-7.733-1.818-10.46-1.818c-6.061,0-15.297,4.85-21.818,4.85c-4.085,0-8.63-0.455-12.424-1.818V19.152   c3.939,1.061,8.788,1.667,12.728,1.667c6.364,0,15.915-4.849,21.672-4.849c1.212,0,2.667,0.169,4.146,0.418   C44.376,16.77,46.497,17.333,48.412,17.788z M48.412,73.314v1.746c-2.121-0.758-7.733-1.818-10.46-1.818   c-6.061,0-15.297,4.85-21.818,4.85c-4.085,0-8.63-0.455-12.424-1.818v-1.758c4.14,1.109,8.794,1.908,12.885,1.908   c6.207,0,15.152-4.848,21.515-4.848C41.509,71.576,44.679,72.254,48.412,73.314z M48.412,76.951v1.746   c-2.121-0.758-7.733-1.818-10.46-1.818c-6.061,0-15.297,4.848-21.818,4.848c-4.085,0-8.63-0.453-12.424-1.816v-1.758   c4.14,1.107,8.794,1.908,12.885,1.908c6.97,0,14.388-4.848,21.515-4.848C41.509,75.213,44.679,75.891,48.412,76.951z    M82.801,20.818c3.793,0,9.854-0.909,12.884-1.667v53.485C91.745,74,87.2,74.455,83.104,74.455c-6.971,0-15.455-4.85-21.818-4.85   c-2.57,0-8.328,1.061-10.303,1.818V17.788c1.908-0.455,3.987-1.019,6.054-1.4c1.448-0.249,2.873-0.418,4.079-0.418h0.023   C66.896,15.97,76.437,20.818,82.801,20.818z M95.685,74.504v1.77c-3.939,1.363-8.484,1.818-12.581,1.818   c-6.971,0-15.455-4.85-21.818-4.85c-2.57,0-8.328,1.061-10.303,1.818v-1.758c3.611-1.055,6.77-1.727,10.156-1.727   c6.364,0,15.298,4.848,21.662,4.848C86.77,76.424,91.437,75.619,95.685,74.504z M95.685,78.139v1.771   c-3.939,1.363-8.484,1.816-12.581,1.816c-6.971,0-15.455-4.848-21.818-4.848c-2.57,0-8.328,1.061-10.303,1.818v-1.758   c3.611-1.055,6.77-1.727,10.156-1.727c7.115,0,14.691,4.848,21.662,4.848C86.77,80.061,91.437,79.254,95.685,78.139z"/>
</g>
</svg>