<svg xmlns="http://www.w3.org/2000/svg" xmlns:xlink="http://www.w3.org/1999/xlink" version="1.1" id="Layer_1" x="0px" y="0px" width="100px" height="100px" viewBox="0 0 100 100" enable-background="new 0 0 100 100" xml:space="preserve">
<g>
	<g id="XMLID_1_">
		<g>
			<path d="M85.683,71.597c-2.532,0-3.074,0-5.614,0c2.665,0.592,3.146,6.597-0.292,7.202c2.597,0.091,3.555-0.2,5.906,0.152     c0,0.504,0,0.998,0,1.496c-0.561,5.341-3.609,9.617-8.913,10.19c-4.142,0.44-8.798,0-13.369,0c-8.809,0-18.115,0-26.759,0     c-4.565,0-9.12,0.42-13.363,0c-5.798-0.554-9.103-5.458-8.922-11.839c2.683,0,3.37,0,6.049,0     c-3.309-0.349-3.54-6.268-0.562-7.202c-2.497,0-2.993,0-5.487,0c-0.566-7.889,5.031-11.262,10.645-13.646     c11.061-4.7,27.948-6.185,41.566-2.847c6.387,1.554,12.923,3.918,16.387,7.799c1.462,1.629,2.592,4.504,2.729,6.891     C85.683,70.396,85.683,71.006,85.683,71.597z M17.374,68.593c21.76,0,43.527,0,65.287,0c-1.715-5.577-8.053-8.241-14.083-10.038     c-11.641-3.485-26.387-2.931-37.542,0.286C24.902,60.626,18.929,62.902,17.374,68.593z M82.661,81.794     c-21.715,0-43.428,0-65.143,0c-0.167,0.019-0.161,0.231-0.144,0.446c1.287,6.704,9.415,5.554,17.692,5.554     c9.919,0,19.389,0,29.057,0c4.613,0,10.947,0.688,14.085-0.453C80.666,86.445,82.183,83.904,82.661,81.794z"/>
			<path d="M80.652,18.463c0.527,0.354,1.675,0.051,2.449,0.155c-1.31,12.985-2.99,25.568-4.318,38.543     c-6.681-3.251-14.164-5.625-23.58-6.002c-1.235-10.908-2.634-21.654-3.883-32.541c8.482,0,16.974,0,25.449,0     c1.395-2.999,2.418-6.386,3.738-9.451c0.1,0,0.198,0,0.3,0c0.78,0.62,1.976,0.835,2.863,1.356     C82.661,13.17,81.615,15.77,80.652,18.463z M78.499,34.964c0.354-4.319,1.457-9.562,1.294-13.497c-0.099,0-0.191,0-0.284,0     c-1.737,4.486-3.448,9.001-5.181,13.497C75.713,34.964,77.111,34.964,78.499,34.964z M75.759,21.468c-7.039,0-14.083,0-21.135,0     c0.071,4.271,0.966,8.988,1.44,13.345c4.991-0.051,9.615,0.264,14.663,0.151C72.293,30.34,74.125,26.006,75.759,21.468z"/>
			<path d="M59.513,58.406c0.087,0.635-0.121,0.958-0.429,1.204C57.265,59.795,58.386,57.106,59.513,58.406z"/>
			<path d="M56.636,57.95c-0.031,0.521-0.31,0.781-0.869,0.75C54.908,58,56.252,56.874,56.636,57.95z"/>
			<path d="M55.337,59.304c0.407,1.302-1.076,1.512-1.428,0.742C53.654,58.996,54.89,58.725,55.337,59.304z"/>
			<path d="M52.035,58.257c-0.289-0.291-0.33-0.604-0.145-1.052c0.39,0,0.823-0.064,1.015,0.144     C52.974,58.027,52.687,58.316,52.035,58.257z"/>
			<path d="M51.021,59.61c0.096,0.525-0.158,0.721-0.283,1.03c-0.549,0.078-0.913-0.035-1.149-0.297     C49.312,59.165,50.641,58.814,51.021,59.61z"/>
			<path d="M48.443,58.406c-1.737-0.247,0.475-2.296,0.426-0.302C48.755,58.221,48.479,58.188,48.443,58.406z"/>
			<path d="M46.145,59.005c1.933-0.641-0.137,3.094-0.574,0.896C45.453,59.342,45.639,59.165,46.145,59.005z"/>
			<path d="M45.276,57.652c0.063,0.658-0.37,0.823-1.008,0.754C43.538,57.517,45.001,56.645,45.276,57.652z"/>
			<path d="M41.82,59.61C40.042,56.734,45.205,58.783,41.82,59.61L41.82,59.61z"/>
		</g>
		<g>
		</g>
	</g>
</g>
</svg>