<svg xmlns="http://www.w3.org/2000/svg" xmlns:xlink="http://www.w3.org/1999/xlink" version="1.1" x="0px" y="0px" width="100px" height="100px" viewBox="0 0 100 100" enable-background="new 0 0 100 100" xml:space="preserve">
<g id="Captions" display="none">
</g>
<g id="Your_Icon">
	<path d="M31.789,21.902c2.157,0.972,4.693-0.003,5.662-2.162c2.218-4.963,7.154-8.169,12.572-8.169   c5.419,0,10.354,3.206,12.573,8.169c0.712,1.592,2.276,2.538,3.915,2.538c0.586,0,1.18-0.12,1.746-0.374   c2.163-0.967,3.131-3.502,2.165-5.663C66.826,8.198,58.818,3,50.023,3S33.221,8.197,29.627,16.241   C28.659,18.402,29.63,20.938,31.789,21.902z"/>
	<path d="M100,34.806c0-4.728-3.867-8.597-8.597-8.597H8.597C3.867,26.209,0,30.078,0,34.806v13.08   c6.711,1.176,13.608,2.106,20.659,2.79c-0.687,1.79-1.214,3.658-1.568,5.588C12.593,55.613,6.22,54.759,0,53.694v35.349   c0,4.729,3.867,8.597,8.597,8.597h82.807c4.729,0,8.597-3.868,8.597-8.597V53.694c-6.22,1.064-12.593,1.919-19.091,2.569   c-0.354-1.93-0.882-3.798-1.571-5.588c7.054-0.684,13.951-1.614,20.662-2.79V34.806z M49.999,87.64   c-14.178,0-25.713-11.536-25.713-25.715c0-0.881,0.045-1.75,0.132-2.609c0.078-0.757,0.2-1.502,0.34-2.24   c0.396-2.058,1.047-4.021,1.9-5.873c0.742-1.607,1.649-3.124,2.689-4.533c0.062-0.085,0.126-0.169,0.19-0.253   c0.971-1.283,2.064-2.468,3.256-3.546c0.14-0.127,0.276-0.257,0.416-0.38c0.335-0.29,0.681-0.569,1.032-0.843   c0.226-0.177,0.457-0.349,0.691-0.518c0.327-0.238,0.653-0.477,0.991-0.7c0.527-0.348,1.068-0.68,1.624-0.987   c0.268-0.151,0.55-0.283,0.823-0.423c0.393-0.201,0.789-0.396,1.196-0.578c0.276-0.122,0.556-0.242,0.837-0.356   c0.491-0.198,0.994-0.381,1.502-0.55c0.192-0.064,0.379-0.139,0.574-0.198c0.698-0.215,1.409-0.395,2.132-0.55   c0.212-0.046,0.43-0.081,0.645-0.12c0.563-0.105,1.133-0.193,1.711-0.262c0.226-0.026,0.451-0.056,0.681-0.077   c0.775-0.069,1.557-0.118,2.35-0.118c0.795,0,1.576,0.049,2.352,0.118c0.229,0.021,0.455,0.051,0.681,0.077   c0.575,0.068,1.147,0.156,1.711,0.262c0.215,0.039,0.433,0.074,0.645,0.12c0.72,0.155,1.432,0.335,2.132,0.55   c0.192,0.06,0.382,0.134,0.574,0.198c0.508,0.169,1.008,0.352,1.502,0.55c0.281,0.114,0.561,0.234,0.837,0.356   c0.404,0.182,0.801,0.377,1.194,0.578c0.275,0.14,0.555,0.271,0.825,0.423c0.556,0.308,1.094,0.64,1.624,0.987   c0.338,0.224,0.664,0.462,0.991,0.7c0.231,0.169,0.463,0.341,0.691,0.518c0.349,0.273,0.695,0.553,1.032,0.843   c0.14,0.123,0.276,0.253,0.416,0.38c1.191,1.078,2.285,2.263,3.256,3.546c0.064,0.084,0.129,0.168,0.19,0.253   c1.04,1.409,1.947,2.926,2.689,4.533c0.852,1.843,1.498,3.794,1.895,5.84c0.305,1.583,0.478,3.211,0.478,4.883   C75.714,76.104,64.179,87.64,49.999,87.64z"/>
	<path d="M61.704,43.7c-0.999-0.631-2.324-0.335-2.958,0.665c-0.631,1.001-0.335,2.323,0.667,2.957   c5.03,3.184,8.033,8.634,8.036,14.58c0,6.27-3.44,12.048-8.868,15.07l-2.148-6.041L50.216,83.61c0,0,4.741-0.23,8.915-2.122   c0.02-0.008,0.039-0.011,0.059-0.02c0.126-0.057,0.243-0.124,0.366-0.184c0.158-0.077,0.32-0.152,0.477-0.234l-0.003-0.006   c7.135-3.668,11.705-11.073,11.705-19.143C71.731,54.478,67.981,47.674,61.704,43.7z"/>
	<path d="M52.845,62.739V41.96c0-1.577-1.281-2.856-2.857-2.856c-1.579,0-2.857,1.279-2.857,2.856v17.922H36.134   c-1.579,0-2.857,1.279-2.857,2.857s1.278,2.857,2.857,2.857h13.854C51.563,65.597,52.845,64.317,52.845,62.739z"/>
</g>
</svg>