<svg xmlns="http://www.w3.org/2000/svg" xmlns:xlink="http://www.w3.org/1999/xlink" version="1.1" x="0px" y="0px" width="100px" height="100px" viewBox="0 0 100 100" enable-background="new 0 0 100 100" xml:space="preserve">
<g id="Captions" display="none">
</g>
<g id="Your_Icon">
	<polygon points="47.114,75.011 70.899,74.573 48.538,51.58 36.144,63.743  "/>
	<polygon points="0,89.671 54.979,87.84 12.713,44.426 0,56.901  "/>
	<path d="M33.436,21.503l0.981,2.356c5.575-0.835,11.61-1.562,15.787-1.562c0,0-1.816,1.425-3.827,3.884l1.782,1.72l-2.742-0.477   c-1.434,1.96-2.829,4.407-3.63,7.202l2.342,0.109l-2.632,1.053c-0.825,3.808-0.473,8.188,2.379,12.833c0,0,4.729-3.494,9.586-8.411   l-0.658-4.599l1.977,3.228c3.75-3.996,7.325-8.731,8.587-13.252c0,0-0.119,3.672,0.757,7.875l2.812-0.926   c0,0-1.408,1.295-2.505,2.251c1.036,4.052,3.063,8.285,7.036,10.038c0,0,0.737-1.521,1.438-3.914   c2.03,5.55,3.625,11.257,4.863,17.035c-0.521,2.256-1.016,4.52-1.45,6.796c-2.202,11.56-3.279,23.4-2.731,35.257h4.352   c-0.812-10.901-0.185-21.938,1.479-32.821c1.454,10.074,1.85,22.667,1.298,32.821h6.624c0.201-13.281-1.121-28.918-4.245-41.79   c-0.353-1.439-0.731-2.869-1.127-4.296c0.535-2.314,1.101-4.622,1.722-6.916c0.972-3.546,2.048-7.08,3.234-10.566   c0.527,2.18,1.407,5.003,2.774,7.17c0,0,4.722-9.659,0.43-14.596L100,35.015c0,0-3.569-12.271-11.461-10.572   c-2.731-4.082-8.455-10.042-17.579-7.46c0,0,7.847-6.581,10.125-9.871c0,0-11.135-5.569-15.187,5.061   c-2.531-4.303-9.366-12.655-25.565-7.593c0,0,2.626,2.528,6.829,5.33l2.553-1.82l-1.198,2.696c2.719,1.706,5.964,3.429,9.535,4.678   c0,0-10.915-3.815-22.167-0.589l0.093,1.634l-0.911-1.391c-5.356,1.701-10.729,5.049-14.983,11.23c0,0,5.938-1.187,12.947-2.274   L33.436,21.503z M81.435,24.954c-2.048,0.753-3.932,2.365-5.474,5.34c0,0,4.077-0.644,7.942-1.073c0,0-5.583,1.932-6.226,8.799   c0,0,4.38-2.108,7.357-4.069c-1.545,4.033-2.912,8.11-4.164,12.242c-0.207,0.691-0.395,1.385-0.594,2.078   c-0.992-3.06-2.091-6.085-3.312-9.062c-0.876-2.137-1.831-4.238-2.837-6.317c0.018-2.521-0.339-5.2-1.396-7.809   C72.733,25.083,76.72,24.424,81.435,24.954z M73.898,8.146c0,0-5.911,6.006-7.369,9.373C66.529,17.52,67.349,10.514,73.898,8.146z    M66.803,20.158c0,0,3.185,4.639,3.002,12.828c0,0-0.556-8.124-4.517-13.32L66.803,20.158z M62.552,17.721   c0,0-2.447-7.641-7.642-9.78c0,0,5.979,1.389,9.344,10.852C52.525,24.036,48.73,33.324,47.913,35.761   c-0.059,0.205-0.129,0.393-0.186,0.602c0,0,0.059-0.218,0.186-0.602C51.389,23.694,61.223,19.1,61.223,19.1   s-15.48-3.364-26.787,0.761C34.436,19.86,46.353,14.054,62.552,17.721z"/>
</g>
</svg>