<svg xmlns="http://www.w3.org/2000/svg" xmlns:xlink="http://www.w3.org/1999/xlink" version="1.1" id="Layer_1" x="0px" y="0px" width="100px" height="100px" viewBox="0 0 100 100" enable-background="new 0 0 100 100" xml:space="preserve">
<path d="M90.737,23.714c0-1.061-0.423-2.078-1.172-2.829l-9.311-9.311c-1.561-1.562-4.096-1.562-5.657,0l-2.258,2.258  c-1.456-1.979-3.795-3.268-6.439-3.268H18.275c-4.418,0-8,3.582-8,8v63.501c0,4.418,3.582,8,8,8H65.9c4.418,0,8-3.582,8-8V42.208  l15.665-15.665C90.314,25.792,90.737,24.775,90.737,23.714z M65.9,82.066H18.275V18.565H65.9v1.708l-6.32,6.321  c-0.717-0.681-1.682-1.104-2.747-1.104h-28.5c-2.209,0-4,1.791-4,4s1.791,4,4,4h24.352l-6,6H28.333c-2.209,0-4,1.791-4,4  s1.791,4,4,4h10.352l-4.567,4.567c-0.329,0.328-0.598,0.712-0.795,1.133l-0.296,0.633h-4.693c-2.209,0-4,1.791-4,4s1.791,4,4,4  h0.948l-4.148,8.867c-0.715,1.524-0.396,3.333,0.795,4.523c0.767,0.768,1.789,1.172,2.829,1.172c0.573,0,1.152-0.123,1.694-0.377  l17.5-8.189c0.421-0.197,0.805-0.466,1.133-0.795l5.201-5.201h2.548c2.209,0,4-1.791,4-4c0-0.73-0.21-1.406-0.552-1.995l5.619-5.62  V82.066z M43.924,60.87l-6.867,3.214l3.214-6.867l28.024-28.025l3.654,3.653L43.924,60.87z M77.605,27.188l-3.654-3.654l3.476-3.475  l3.653,3.654L77.605,27.188z"/>
</svg>