<?xml version="1.0" encoding="utf-8"?>
<!-- Generator: Adobe Illustrator 16.0.0, SVG Export Plug-In . SVG Version: 6.00 Build 0)  -->
<!DOCTYPE svg PUBLIC "-//W3C//DTD SVG 1.1//EN" "http://www.w3.org/Graphics/SVG/1.1/DTD/svg11.dtd">
<svg version="1.1" id="Layer_1" xmlns="http://www.w3.org/2000/svg" xmlns:xlink="http://www.w3.org/1999/xlink" x="0px" y="0px"
	 width="398.836px" height="398.98px" viewBox="0 0 398.836 398.98" enable-background="new 0 0 398.836 398.98"
	 xml:space="preserve">
<path fill="#6DC32E" d="M200.592,2.016C91.162,2.016,2.348,90.83,2.348,200.26c0,109.432,88.813,198.245,198.244,198.245
	c109.431,0,198.244-88.812,198.244-198.245C398.836,90.83,310.023,2.016,200.592,2.016z M317.159,208.393
	c0,14.666-11.695,26.368-26.369,26.368h-55.697v55.698c0,14.674-11.702,26.368-26.369,26.368H199.8
	c-14.473,0-26.369-11.694-26.369-26.368V234.76h-55.71c-14.664,0-26.356-11.703-26.356-26.369v-8.925
	c0-14.472,11.693-26.369,26.356-26.369h55.71V117.39c0-14.666,11.896-26.359,26.369-26.359h8.923
	c14.667,0,26.369,11.693,26.369,26.359v55.707h55.697c14.674,0,26.369,11.897,26.369,26.369V208.393z"/>
</svg>
