<?xml version="1.0" encoding="utf-8"?>
<!-- Generator: Adobe Illustrator 16.0.0, SVG Export Plug-In . SVG Version: 6.00 Build 0)  -->
<!DOCTYPE svg PUBLIC "-//W3C//DTD SVG 1.1//EN" "http://www.w3.org/Graphics/SVG/1.1/DTD/svg11.dtd">
<svg version="1.1" id="Layer_1" xmlns="http://www.w3.org/2000/svg" xmlns:xlink="http://www.w3.org/1999/xlink" x="0px" y="0px"
	 width="403.836px" height="398.98px" viewBox="0 0 403.836 398.98" enable-background="new 0 0 403.836 398.98"
	 xml:space="preserve">
<path fill="#EB4A2F" d="M342.808,57.859c-77.399-77.145-202.54-77.145-279.94,0c-77.158,77.412-77.158,202.53,0,279.94
	c77.4,77.146,202.541,77.146,279.94,0C419.963,260.389,419.963,135.271,342.808,57.859z M285.683,242.336
	c10.131,10.396,10.131,26.963,0,37.094l-6.435,6.436c-10.144,10.143-26.711,10.143-37.095,0l-39.315-39.316l-39.316,39.316
	c-10.385,10.143-26.962,10.143-37.094,0l-6.435-6.436c-10.131-10.131-10.131-26.697,0-37.094l39.315-39.314l-39.315-39.315
	c-10.131-10.385-10.131-26.963,0-37.093l6.435-6.436c10.131-10.131,26.709-10.131,37.094,0l39.316,39.316l39.315-39.316
	c10.382-10.131,26.951-10.131,37.095,0l6.435,6.436c10.131,10.13,10.131,26.708,0,37.093l-39.315,39.315L285.683,242.336z"/>
</svg>
