<?xml version="1.0" encoding="utf-8"?>
<!-- Generator: Adobe Illustrator 16.0.0, SVG Export Plug-In . SVG Version: 6.00 Build 0)  -->
<!DOCTYPE svg PUBLIC "-//W3C//DTD SVG 1.1//EN" "http://www.w3.org/Graphics/SVG/1.1/DTD/svg11.dtd">
<svg version="1.1" id="Layer_1" xmlns="http://www.w3.org/2000/svg" xmlns:xlink="http://www.w3.org/1999/xlink" x="0px" y="0px"
	 width="403.837px" height="398.98px" viewBox="0 0 403.837 398.98" enable-background="new 0 0 403.837 398.98"
	 xml:space="preserve">
<g>
	<g>
		<path fill="#989898" d="M371.321,397.167H151.095c-10.391,0-18.818-8.428-18.818-18.822c0-10.392,8.427-18.819,18.818-18.819
			h200.215c-7.579-59.486-50.541-109.875-109.647-126.005c-7.547-2.055-13.034-8.582-13.786-16.358
			c-0.748-7.792,3.401-15.226,10.423-18.685c28.636-14.116,46.427-42.399,46.427-73.822c0-45.588-37.159-82.667-82.814-82.667
			c-45.661,0-82.816,37.08-82.816,82.667c0,31.422,17.795,59.706,46.433,73.822c7.016,3.451,11.159,10.894,10.416,18.685
			c-0.744,7.782-6.238,14.303-13.784,16.358C96.907,251.326,51.333,310.883,51.333,378.344c0,10.395-8.431,18.822-18.819,18.822
			c-10.394,0-18.822-8.428-18.822-18.822c0-71.897,41.372-136.611,104.062-167.96c-22.952-22.201-36.296-52.762-36.296-85.725
			c0-66.345,54.044-120.313,120.458-120.313c66.422,0,120.46,53.968,120.46,120.313c0,32.963-13.345,63.523-36.296,85.725
			c62.693,31.349,104.067,96.063,104.067,167.96C390.146,388.739,381.711,397.167,371.321,397.167z"/>
	</g>
</g>
</svg>
