<?xml version="1.0" encoding="utf-8"?>
<!-- Generator: Adobe Illustrator 16.0.0, SVG Export Plug-In . SVG Version: 6.00 Build 0)  -->
<!DOCTYPE svg PUBLIC "-//W3C//DTD SVG 1.1//EN" "http://www.w3.org/Graphics/SVG/1.1/DTD/svg11.dtd">
<svg version="1.1" id="Layer_1" xmlns="http://www.w3.org/2000/svg" xmlns:xlink="http://www.w3.org/1999/xlink" x="0px" y="0px"
	 width="403.837px" height="398.98px" viewBox="0 0 403.837 398.98" enable-background="new 0 0 403.837 398.98"
	 xml:space="preserve">
<g>
	<path fill="#989898" d="M280.215,132.937h-32.896c-9.395,0-16.569-7.172-16.569-16.313c0-9.409,7.174-16.581,16.569-16.581h32.896
		c9.154,0,16.315,7.172,16.315,16.581C296.531,125.27,289.369,132.937,280.215,132.937z"/>
	<path fill-rule="evenodd" clip-rule="evenodd" fill="#989898" d="M164.961,57.51l-42.532,42.532h42.532V57.51z M247.319,363.688
		h82.105V33.769H230.75c-18.053,0-32.893,14.842-32.893,32.895v49.96c0,9.141-7.174,16.313-16.315,16.313H99.183v16.328
		c0,9.395-7.174,16.567-16.327,16.567c-9.395,0-16.569-7.172-16.569-16.567v-32.641c0-4.215,1.472-8.418,4.697-11.871l98.674-98.687
		c2.972-3.211,7.174-4.697,11.884-4.697H346.5c9.141,0,16.315,7.172,16.315,16.568v362.814c0,9.153-7.174,16.326-16.315,16.326
		h-98.686c-9.394,0-16.568-7.172-16.568-16.326C230.75,370.861,237.925,363.688,247.319,363.688z"/>
	<path fill="#989898" d="M164.961,182.16c0-9.154,7.174-16.328,16.581-16.328h98.674c9.154,0,16.315,7.174,16.315,16.328
		c0,9.394-7.162,16.568-16.315,16.568h-98.674C172.135,198.728,164.961,191.554,164.961,182.16z"/>
	<path fill="#989898" d="M214.426,231.623h65.789c9.154,0,16.315,7.172,16.315,16.315c0,9.407-7.162,16.58-16.315,16.58h-65.789
		c-9.398,0-16.569-7.173-16.569-16.58C197.857,239.292,205.028,231.623,214.426,231.623z"/>
	<path fill="#989898" d="M214.426,297.402h65.789c9.154,0,16.315,7.172,16.315,16.328c0,9.395-7.162,16.567-16.315,16.567h-65.789
		c-9.398,0-16.569-7.172-16.569-16.567C197.857,305.071,205.028,297.402,214.426,297.402z"/>
	<path fill-rule="evenodd" clip-rule="evenodd" fill="#989898" d="M47.245,299.382c19.537,19.539,50.452,19.539,69.98,0
		c19.54-19.539,19.54-50.199,0-69.74c-19.528-19.539-50.442-19.539-69.98,0C28.199,249.183,28.199,280.338,47.245,299.382z
		 M24.238,206.397c32.402-32.402,84.34-32.402,116.485,0c28.453,28.196,31.907,71.973,10.387,103.865l58.615,58.122
		c6.679,6.678,6.679,16.822,0,23.006c-6.677,6.678-17.063,6.678-23.245,0l-57.867-58.124
		c-31.907,21.266-75.682,17.56-103.881-10.143C-8.161,290.736-8.161,238.795,24.238,206.397z"/>
</g>
</svg>
