<?xml version="1.0" encoding="utf-8"?>
<!-- Generator: Adobe Illustrator 16.0.0, SVG Export Plug-In . SVG Version: 6.00 Build 0)  -->
<!DOCTYPE svg PUBLIC "-//W3C//DTD SVG 1.1//EN" "http://www.w3.org/Graphics/SVG/1.1/DTD/svg11.dtd">
<svg version="1.1" id="Layer_1" xmlns="http://www.w3.org/2000/svg" xmlns:xlink="http://www.w3.org/1999/xlink" x="0px" y="0px"
	 width="332.16px" height="393.488px" viewBox="0 0 332.16 393.488" enable-background="new 0 0 332.16 393.488"
	 xml:space="preserve">
<path fill-rule="evenodd" clip-rule="evenodd" fill="#989898" d="M241.691,33.147H35.035V360.34h220.18V203.344
	c0-9.224,7.725-16.573,17.524-16.573c9.602,0,17.511,7.349,17.511,16.573v173.568c0,2.261-0.561,4.518-1.314,6.401
	c-2.824,6.025-9.043,10.175-16.197,10.175H17.524C7.912,393.488,0,386.14,0,376.913V16.574C0,7.34,7.912,0,17.524,0h224.167
	c9.604,0,17.515,7.34,17.515,16.574C259.206,25.8,251.296,33.147,241.691,33.147z"/>
<path fill-rule="evenodd" clip-rule="evenodd" fill="#989898" d="M130.26,277.678L72.874,296.35l-0.968,0.389
	c-1.758,0.199-3.696-0.189-5.063-1.358c-1.356-1.366-1.946-3.116-1.356-4.861l0.189-0.979l19.65-54.071l0.392-0.979
	c0.188-0.578,0.577-1.157,1.166-1.544c1.949-1.949,5.444-1.949,7.58,0l38.325,36.174c2.135,2.138,2.135,5.253,0,7.198
	c-0.392,0.58-0.97,0.779-1.561,1.17L130.26,277.678z"/>
<path fill-rule="evenodd" clip-rule="evenodd" fill="#989898" d="M284.701,135.297L152.627,260.174
	c-2.726,4.473-7.39,4.473-10.117,1.747l-40.459-38.123c-2.724-2.724-2.724-7,0-9.526L234.126,89.387
	c2.916-2.525,7.388-2.525,10.313,0l40.261,38.125C287.618,130.237,287.618,134.52,284.701,135.297z"/>
<path fill-rule="evenodd" clip-rule="evenodd" fill="#989898" d="M327.488,96.975l-23.925,22.366c-2.715,2.727-7.388,2.727-10.116,0
	l-40.448-38.123c-2.927-2.527-2.927-6.81,0-9.527l23.924-22.565c6.221-6.033,16.524-6.033,22.758,0l27.807,26.062
	C333.718,81.218,333.718,90.943,327.488,96.975z"/>
</svg>
