<?xml version="1.0" encoding="utf-8"?>
<!-- Generator: Adobe Illustrator 16.0.0, SVG Export Plug-In . SVG Version: 6.00 Build 0)  -->
<!DOCTYPE svg PUBLIC "-//W3C//DTD SVG 1.1//EN" "http://www.w3.org/Graphics/SVG/1.1/DTD/svg11.dtd">
<svg version="1.1" id="Layer_1" xmlns="http://www.w3.org/2000/svg" xmlns:xlink="http://www.w3.org/1999/xlink" x="0px" y="0px"
	 width="319.694px" height="266.923px" viewBox="0 0 319.694 266.923" enable-background="new 0 0 319.694 266.923"
	 xml:space="preserve">
<g>
	<path fill="#989898" d="M311.612,0H162.927c-4.459,0-8.083,3.624-8.083,8.082v250.438c0,4.633,3.768,8.403,8.403,8.403h38.1
		c4.634,0,8.4-3.772,8.4-8.405c0-4.632-3.766-8.402-8.403-8.402h-29.698c0.003-21.292,0.021-210.698,0.003-233.95H302.89v233.953
		h-21.298v-56.381c0-4.632-3.77-8.402-8.404-8.402h-63.935c-4.634,0-8.401,3.771-8.401,8.402v28.384
		c0,4.632,3.768,8.402,8.401,8.402c4.632,0,8.402-3.77,8.402-8.402V202.14h47.132v56.381c0,4.633,3.77,8.403,8.401,8.403h38.103
		c4.634,0,8.403-3.772,8.403-8.406V8.082C319.694,3.624,316.067,0,311.612,0z"/>
	<path fill="#989898" d="M47.605,161.644h9.447c2.498,0,4.524-2.026,4.524-4.527V136.9c0-2.501-2.026-4.527-4.524-4.527h-9.447
		c-2.5,0-4.526,2.026-4.526,4.527v20.216C43.079,159.618,45.105,161.644,47.605,161.644z"/>
	<path fill="#989898" d="M90.651,161.644h9.447c2.498,0,4.525-2.026,4.525-4.527V136.9c0-2.501-2.027-4.527-4.525-4.527h-9.447
		c-2.499,0-4.525,2.026-4.525,4.527v20.216C86.126,159.618,88.152,161.644,90.651,161.644z"/>
	<path fill="#989898" d="M47.605,205.13h9.447c2.498,0,4.524-2.027,4.524-4.527v-20.218c0-2.501-2.026-4.527-4.524-4.527h-9.447
		c-2.5,0-4.526,2.026-4.526,4.527v20.218C43.079,203.103,45.105,205.13,47.605,205.13z"/>
	<path fill="#989898" d="M90.651,205.13h9.447c2.498,0,4.525-2.027,4.525-4.527v-20.218c0-2.501-2.027-4.527-4.525-4.527h-9.447
		c-2.499,0-4.525,2.026-4.525,4.527v20.218C86.126,203.103,88.152,205.13,90.651,205.13z"/>
	<path fill="#989898" d="M47.605,254.12h9.447c2.498,0,4.524-2.026,4.524-4.527v-20.216c0-2.501-2.026-4.527-4.524-4.527h-9.447
		c-2.5,0-4.526,2.026-4.526,4.527v20.216C43.079,252.093,45.105,254.12,47.605,254.12z"/>
	<path fill="#989898" d="M90.651,254.12h9.447c2.498,0,4.525-2.026,4.525-4.527v-20.216c0-2.501-2.027-4.527-4.525-4.527h-9.447
		c-2.499,0-4.525,2.026-4.525,4.527v20.216C86.126,252.093,88.152,254.12,90.651,254.12z"/>
	<path fill="#989898" d="M211.021,71.359h9.447c2.498,0,4.526-2.026,4.526-4.527V46.616c0-2.502-2.028-4.527-4.526-4.527h-9.447
		c-2.497,0-4.525,2.025-4.525,4.527v20.216C206.496,69.333,208.524,71.359,211.021,71.359z"/>
	<path fill="#989898" d="M254.07,71.359h9.446c2.498,0,4.524-2.026,4.524-4.527V46.616c0-2.502-2.026-4.527-4.524-4.527h-9.446
		c-2.5,0-4.526,2.025-4.526,4.527v20.216C249.543,69.333,251.57,71.359,254.07,71.359z"/>
	<path fill="#989898" d="M211.021,114.846h9.447c2.498,0,4.526-2.027,4.526-4.527V90.101c0-2.502-2.028-4.527-4.526-4.527h-9.447
		c-2.497,0-4.525,2.025-4.525,4.527v20.217C206.496,112.818,208.524,114.846,211.021,114.846z"/>
	<path fill="#989898" d="M254.07,114.846h9.446c2.498,0,4.524-2.027,4.524-4.527V90.101c0-2.502-2.026-4.527-4.524-4.527h-9.446
		c-2.5,0-4.526,2.025-4.526,4.527v20.217C249.543,112.818,251.57,114.846,254.07,114.846z"/>
	<path fill="#989898" d="M211.021,163.835h9.447c2.498,0,4.526-2.027,4.526-4.528v-20.216c0-2.501-2.028-4.527-4.526-4.527h-9.447
		c-2.497,0-4.525,2.025-4.525,4.527v20.216C206.496,161.808,208.524,163.835,211.021,163.835z"/>
	<path fill="#989898" d="M254.07,163.835h9.446c2.498,0,4.524-2.027,4.524-4.528v-20.216c0-2.501-2.026-4.527-4.524-4.527h-9.446
		c-2.5,0-4.526,2.025-4.526,4.527v20.216C249.543,161.808,251.57,163.835,254.07,163.835z"/>
	<g>
		<path fill="#989898" d="M131.1,95.054H16.604C7.45,95.054,0,102.502,0,111.658v145.029c0,4.955,4.018,8.97,8.971,8.97
			c4.953,0,8.969-4.015,8.969-8.97V112.994h111.823v143.693c0,4.955,4.018,8.97,8.971,8.97c4.953,0,8.969-4.015,8.969-8.97V111.658
			C147.703,102.502,140.252,95.054,131.1,95.054z"/>
	</g>
</g>
</svg>
