<?xml version="1.0" encoding="utf-8"?>
<!-- Generator: Adobe Illustrator 16.0.0, SVG Export Plug-In . SVG Version: 6.00 Build 0)  -->
<!DOCTYPE svg PUBLIC "-//W3C//DTD SVG 1.1//EN" "http://www.w3.org/Graphics/SVG/1.1/DTD/svg11.dtd">
<svg version="1.1" id="Layer_1" xmlns="http://www.w3.org/2000/svg" xmlns:xlink="http://www.w3.org/1999/xlink" x="0px" y="0px"
	 width="266.688px" height="266.923px" viewBox="0 0 266.688 266.923" enable-background="new 0 0 266.688 266.923"
	 xml:space="preserve">
<g>
	<path fill-rule="evenodd" clip-rule="evenodd" fill="#989898" d="M58.409,146.208c24.155,24.156,62.374,24.156,86.516,0
		c24.158-24.156,24.158-62.062,0-86.22c-24.143-24.158-62.362-24.158-86.516,0C34.862,84.146,34.862,122.664,58.409,146.208z
		 M29.965,31.25c40.059-40.059,104.271-40.059,144.013,0c35.176,34.859,39.446,88.98,12.841,128.41l72.467,71.856
		c8.257,8.256,8.257,20.799,0,28.441c-8.254,8.256-21.097,8.256-28.739,0L159.006,188.1c-39.447,26.292-93.567,21.709-128.429-12.54
		C-10.09,135.519-10.09,71.304,29.965,31.25z"/>
</g>
</svg>
