<?xml version="1.0" encoding="utf-8"?>
<!-- Generator: Adobe Illustrator 16.0.0, SVG Export Plug-In . SVG Version: 6.00 Build 0)  -->
<!DOCTYPE svg PUBLIC "-//W3C//DTD SVG 1.1//EN" "http://www.w3.org/Graphics/SVG/1.1/DTD/svg11.dtd">
<svg version="1.1" id="Layer_1" xmlns="http://www.w3.org/2000/svg" xmlns:xlink="http://www.w3.org/1999/xlink" x="0px" y="0px"
	 width="377.752px" height="398.98px" viewBox="0 0 377.752 398.98" enable-background="new 0 0 377.752 398.98"
	 xml:space="preserve">
<path fill-rule="evenodd" clip-rule="evenodd" fill="#AAAAAA" d="M310.538,0h-44.539c-37.161,0-67.177,31.414-67.177,70.167v247.934
	v9.357v71.522h178.931v-71.522v-9.357V70.167C377.752,31.414,347.737,0,310.538,0z M238.583,59.644h39.763v39.763h-39.763V59.644z
	 M238.583,119.288h39.763v39.763h-39.763V119.288z M238.583,178.932h39.763v39.762h-39.763V178.932z M238.583,238.574h39.763v39.764
	h-39.763V238.574z M238.583,298.219h39.763v39.763h-39.763V298.219z M318.109,397.624h-59.644v-39.762h59.644V397.624z
	 M337.991,337.981h-39.763v-39.763h39.763V337.981z M337.991,278.338h-39.763v-39.764h39.763V278.338z M337.991,218.693h-39.763
	v-39.762h39.763V218.693z M337.991,159.051h-39.763v-39.763h39.763V159.051z M337.991,99.407h-39.763V59.644h39.763V99.407z"/>
<path fill-rule="evenodd" clip-rule="evenodd" fill="#AAAAAA" d="M134.208,59.644H44.733C20.075,59.644,0,77.545,0,99.407v238.575
	v19.881v39.762h44.733h14.911h0.005v-39.762h59.644v39.762h0.005h14.911h44.733v-39.762v-19.881V99.407
	C178.941,77.545,158.865,59.644,134.208,59.644z M79.525,337.981H39.763v-39.763h39.762V337.981z M79.525,278.338H39.763v-39.764
	h39.762V278.338z M79.525,218.693H39.763v-39.762h39.762V218.693z M79.525,159.051H39.763v-39.763h39.762V159.051z M139.178,337.981
	H99.406v-39.763h39.772V337.981z M139.178,278.338H99.406v-39.764h39.772V278.338z M139.178,218.693H99.406v-39.762h39.772V218.693z
	 M139.178,159.051H99.406v-39.763h39.772V159.051z"/>
</svg>
